<svg width="30.000000" height="30.000000" viewBox="0 0 30 30" fill="none" xmlns="http://www.w3.org/2000/svg" xmlns:xlink="http://www.w3.org/1999/xlink">
	<desc>
			Created with Pixso.
	</desc>
	<defs/>
	<path d="M30 15C30 6.71 23.28 0 15 0C6.71 0 0 6.71 0 15C0 23.28 6.71 30 15 30C23.28 30 30 23.28 30 15ZM14.67 23.13L9.09 8.67C8.85 8 9.26 7.41 10.27 7.63L10.27 7.63L21.87 10.09C22.7 10.27 22.9 10.76 22.51 11.45L19.74 15.2L21.49 17C21.69 17.2 21.86 17.37 21.86 17.76L18.04 17.49L11.76 10.54C11.49 10.24 11.34 10.61 11.61 11.01L17.02 19.6L15.86 23.3C15.61 24.1 15.06 24.12 14.67 23.13Z" fill="#000000" fill-opacity="1.000000" fill-rule="nonzero"/>
</svg>
